# xmcd
#
# Track frame offsets:
#	183
#	11683
#	24695
#	34910
#	55813
#	69225
#	83780
#	97883
#	110993
#	122930
#	130165
#	140628
#	155180
#	186135
#	199693
#	210165
#
# Disc length: 2952
#
# Revision: 3
# Processed by: cddbd v1.5.1PL0 Copyright (c) Steve Scherf et al.
# Submitted via: ExactAudioCopy v0.90b4
# Normalized: r2:DSETVAR1,TDELIM( - )
#
DISCID=e30b8610
DTITLE=Various Artist - 16 All Time Blues Hits - CD 6
DYEAR=1991
DGENRE=Blues
TTITLE0=Howlin' Wolf - Howlin' For My Darling
TTITLE1=Waters, Muddy - Mannish Boy
TTITLE2=Mayall, John - Road Show
TTITLE3=Bloomfield, Mike - Women Lovin' Eachother
TTITLE4=Watson, Johnny Guitar - Someone Cares For Me
TTITLE5=Hooker, John Lee - Sugar Mama
TTITLE6=Williamson, Sonny Boy - Help Me
TTITLE7=Little Walter - Mean Old World
TTITLE8=Waters, Muddy - Long Distance Call
TTITLE9=Williamson, Sonny Boy - I Wonder Why
TTITLE10=James, Elmore - I Done Somebody Wrong
TTITLE11=Memphis Slim - I'm Crying
TTITLE12=King, B. B. - Outside Help
TTITLE13=Hooker, John Lee - Time Is Marching
TTITLE14=Howlin' Wolf - Who's Been Talking
TTITLE15=Williams, Big Joe - Bye, Bye Baby Blues
EXTD=All Time Music\nATM 071\n\n10 CD-Set Blues Sampler
EXTT0=
EXTT1=
EXTT2=
EXTT3=
EXTT4=
EXTT5=
EXTT6=
EXTT7=
EXTT8=
EXTT9=
EXTT10=
EXTT11=
EXTT12=
EXTT13=
EXTT14=
EXTT15=
PLAYORDER=
